<svg width="446" height="248" viewBox="0 0 446 248" fill="none" xmlns="http://www.w3.org/2000/svg">
<path d="M34.2234 134.953C17.9253 134.953 0 131.059 0 118.975C0 112.547 6.26852 107.319 17.4718 106.732C9.25607 104.785 2.69413 99.1029 2.69413 89.3934C2.69413 79.9773 10.163 73.1219 18.5388 70.4278C9.73621 66.2399 4.93479 58.6376 4.93479 49.6483C4.93479 35.6175 16.2981 25.2945 36.4641 25.2945C44.3864 25.2945 50.9484 26.9483 55.8832 29.9358C58.1238 22.467 62.7652 15.905 70.074 15.905C77.7029 15.905 81.5707 20.6798 81.5707 26.6549C81.5707 33.6703 75.7557 36.9512 70.5275 38.0182L70.3674 37.7248C71.2744 36.5244 71.5678 35.1907 71.5678 33.5369C71.5678 29.6424 69.3271 26.5215 64.8458 26.5215C61.6982 26.5215 59.3242 28.4687 57.6704 31.0028C64.3923 35.1907 68.1268 41.7527 68.1268 49.675C68.1268 63.7058 56.7634 74.0288 36.4641 74.0288C30.3289 74.0288 25.2608 73.1219 20.7795 71.4948C17.3385 72.8285 14.8044 74.9358 14.8044 78.0567C14.8044 81.6311 17.4985 83.5783 21.9798 83.5783H49.4813C66.6597 83.5783 76.9827 91.3406 76.9827 105.692C76.9294 125.697 56.47 134.953 34.2234 134.953ZM59.751 117.615C59.751 110.44 55.2696 107.452 46.147 107.452H25.6876C18.3788 107.452 13.2839 110.733 13.2839 118.202C13.2839 127.751 22.7 132.233 34.4902 132.233C48.2542 132.259 59.751 127.191 59.751 117.615ZM29.1286 49.6483C29.1286 63.8392 31.2092 71.4681 36.4374 71.4681C41.8257 71.4681 43.9063 63.8392 43.9063 49.6483C43.9063 35.4575 41.8257 27.8285 36.4374 27.8285C31.2359 27.8285 29.1286 35.4575 29.1286 49.6483Z" fill="#1886DF"/>
<path d="M156.26 58.6643H111.26C111.26 78.6703 119.983 90.3003 133.694 90.3003C142.416 90.3003 150.152 85.9524 154.66 74.8024L155.62 75.1225C152.072 92.7011 139.802 103.851 121.423 103.851C100.617 103.851 83.332 88.6732 83.332 62.3721C83.332 37.0313 101.231 20.7332 122.063 20.7332C145.297 20.7332 156.26 37.3514 156.26 58.6643ZM130.626 55.2767C130.626 37.1913 129.506 23.4806 121.903 23.4806C114.968 23.4806 111.58 36.7112 111.26 55.2767H130.626Z" fill="#1886DF"/>
<path d="M205.608 34.2573L225.801 38.1251L227.428 34.1506L206.408 30.1227L211.93 1.31424L210.276 0.994141C201.447 16.6521 186.296 24.8945 170.558 25.4814L170.184 27.4553L177.626 28.869L167.33 80.8044C163.702 99.6899 171.998 110.2 186.402 112.947C203.954 116.308 213.69 104.091 218.812 88.0865L217.051 87.4196C213.29 98.0361 207.742 102.811 201.447 101.611C195.658 100.49 193.818 95.6888 195.445 87.2329L205.608 34.2573Z" fill="#1886DF"/>
<path d="M259.624 136.501C259.624 146.37 260.211 148.451 265.439 152.186V152.479H228.415V152.186C233.803 148.451 234.23 146.37 234.23 136.501V95.1287C234.23 84.8323 233.323 82.5917 227.668 78.8572V78.5638H259.651V136.501H259.624ZM246.794 41.6462C255.009 41.6462 261.278 47.7814 261.278 55.677C261.278 63.4393 255.009 69.7079 246.794 69.7079C238.578 69.7079 232.443 63.4393 232.443 55.677C232.443 47.7814 238.578 41.6462 246.794 41.6462Z" fill="#1886DF"/>
<path d="M308.091 53.4901L307.131 71.0953C311.079 58.8783 319.961 52.6365 331.138 53.25C345.462 54.0236 351.624 64.3733 350.904 77.8172L348.957 113.775C348.423 123.617 348.77 125.725 353.918 129.753L353.891 130.046L316.894 128.045L316.921 127.752C322.335 124.311 322.896 122.23 323.429 112.387L325.403 75.8433C325.723 70.0283 323.723 65.4403 317.907 65.1202C311.932 64.8001 307.158 70.0816 306.544 81.7117L304.944 111.4C304.41 121.243 304.89 123.377 309.905 127.379L309.878 127.672L272.881 125.671L272.908 125.378C278.483 121.937 279.043 119.883 279.576 110.04L281.817 68.7212C282.377 58.4249 281.603 56.1308 276.135 52.103L276.162 51.8096L308.091 53.4901Z" fill="#1886DF"/>
<path d="M122.57 183.635C122.437 198.546 117.449 211.43 101.711 213.19C88.8004 214.657 79.0108 207.935 77.1169 191.024L72.1555 144.37L65.4868 145.117L65.2734 143.33C78.424 138.688 89.0671 127.725 92.4281 112.147L93.9219 111.987L96.8294 137.808L115.688 135.674L115.368 139.462L97.2562 141.516L102.591 189.05C103.445 196.625 106.246 200.2 111.447 199.613C117.075 198.973 120.516 193.478 120.917 183.502L122.57 183.635Z" fill="#1886DF"/>
<path d="M130.277 162.589C130.277 139.275 147.002 124.044 167.488 124.044C188.108 124.044 204.833 139.275 204.833 162.589C204.833 185.742 188.108 200.974 167.488 200.974C147.002 200.974 130.277 185.742 130.277 162.589ZM177.918 162.589C177.918 139.275 175.224 126.578 167.462 126.578C159.699 126.578 157.165 139.275 157.165 162.589C157.165 185.742 159.699 198.439 167.462 198.439C175.224 198.439 177.918 185.742 177.918 162.589Z" fill="#1886DF"/>
<path d="M256.902 185.742C258.369 176.486 257.889 174.352 253.328 170.191L253.381 169.924L282.217 174.512L273.921 226.554C272.534 235.277 272.987 237.544 277.175 241.518L277.122 241.785L248.687 237.251L251.221 221.299C246.633 231.969 238.15 236.957 228.067 235.357C215.317 233.329 210.729 223.38 212.676 211.163L217.718 179.5C219.185 170.244 218.704 168.11 214.143 163.949L214.196 163.682L243.032 168.27L235.563 215.217C234.763 220.312 236.203 224.954 241.164 225.727C246.393 226.554 251.087 222.206 252.768 211.616L256.902 185.742Z" fill="#1886DF"/>
<path d="M318.866 181.314C318.866 200.893 326.495 212.23 339.192 212.23C346.954 212.23 353.543 208.495 357.277 198.946L358.184 199.239C355.037 215.964 343.54 225.087 327.402 225.087C308.57 225.087 293.045 211.189 293.045 188.036C293.045 163.522 310.97 148.157 332.176 148.157C346.661 148.157 357.277 154.719 357.277 166.67C357.277 175.339 350.849 179.82 343.993 179.82C336.818 179.82 332.337 175.926 331.75 171.444C332.657 171.898 333.537 171.898 334.284 171.898C339.352 171.898 341.593 167.256 341.593 161.601C341.593 154.719 338.605 150.692 332.63 150.692C323.641 150.692 318.866 163.522 318.866 181.314Z" fill="#1886DF"/>
<path d="M395.636 136.101V191.664C398.917 179.26 407.426 172.538 418.656 172.538C433.007 172.538 439.569 182.541 439.569 195.985V231.996C439.569 241.865 440.156 243.946 445.384 247.68V247.974H408.333V247.68C413.721 243.946 414.148 241.865 414.148 231.996V195.398C414.148 189.583 411.747 185.102 405.932 185.102C399.957 185.102 395.636 190.623 395.636 202.28V232.022C395.636 241.892 396.089 243.972 401.451 247.707V248H364.4V247.707C369.628 243.972 370.082 241.892 370.082 232.022V152.692C370.082 142.396 368.748 139.835 363.066 136.421V136.127H395.636V136.101Z" fill="#1886DF"/>
</svg>
