<svg width="476" height="242" viewBox="0 0 476 242" fill="none" xmlns="http://www.w3.org/2000/svg">
<g opacity="0.12">
<path d="M334 131.039L475.05 80" stroke="black" stroke-linecap="square"/>
<path d="M334 190.848L475.05 139.809" stroke="black" stroke-linecap="square"/>
<path d="M334 161.039L475.05 110" stroke="black" stroke-linecap="square"/>
<path d="M334 220.848L475.05 169.809" stroke="black" stroke-linecap="square"/>
<path d="M334 141.039L475.05 90" stroke="black" stroke-linecap="square"/>
<path d="M334 200.848L475.05 149.809" stroke="black" stroke-linecap="square"/>
<path d="M334 171.039L475.05 120" stroke="black" stroke-linecap="square"/>
<path d="M334 230.848L475.05 179.809" stroke="black" stroke-linecap="square"/>
<path d="M334 151.039L475.05 100" stroke="black" stroke-linecap="square"/>
<path d="M334 210.848L475.05 159.809" stroke="black" stroke-linecap="square"/>
<path d="M334 181.039L475.05 130" stroke="black" stroke-linecap="square"/>
<path d="M334 240.848L475.05 189.809" stroke="black" stroke-linecap="square"/>
</g>
<path fill-rule="evenodd" clip-rule="evenodd" d="M367.771 73.3173C371.528 73.1768 373.845 72.4395 376.97 68.7177L388.733 54.4974C391.717 51.2321 392.841 48.2476 392.735 45.7195C392.595 42.4542 390.453 40.0315 387.153 39.0834V38.7674L416.471 37.5736V37.8896C406.921 40.9444 401.584 44.7364 395.931 51.4076L389.084 59.9749L407.166 96.2101C411.239 104.496 415.698 110.255 421.983 114.363V114.679L385.783 116.153C386.134 113.309 385.186 109.307 383.15 105.164L371.036 80.0236C369.667 77.1093 368.684 76.1964 366.367 76.3018L364.962 76.372L365.945 100.248C366.367 110.536 366.928 112.713 372.687 116.399V116.715L333.994 118.295V117.979C339.296 113.871 339.682 111.659 339.26 101.336L335.855 18.4729C335.398 7.69364 333.888 5.09538 327.814 1.75978V1.44377L361.837 0.0393066L364.857 73.3875L367.771 73.3173ZM96.1708 4.12358C93.9236 5.3876 90.5178 5.9845 85.3915 6.40584L11.9028 12.3748C6.77655 12.7962 3.33561 12.761 1.05335 11.8481L0 50.9274L0.280893 50.8923C10.1122 27.227 15.4842 15.8158 30.7227 14.5868L34.6201 14.2708L41.6775 101.313C42.5202 111.565 40.9051 114.831 34.269 119.922L34.3041 120.238L80.6865 116.446L80.6514 116.13C73.278 112.197 71.1713 109.248 70.3286 98.9601L63.2712 11.9535L67.1686 11.6375C82.407 10.4086 89.6751 20.7665 103.053 42.6059L103.369 42.5708L96.1708 4.12358ZM118.607 110.793L117.027 52.7183L83.0039 53.6663V53.9823C89.0431 57.4233 90.5178 60.0215 90.7987 70.8008L93.0107 153.699C93.2916 163.987 92.9054 166.199 87.5333 170.237V170.553L126.261 169.5V169.184C120.538 165.427 120.012 163.25 119.731 152.962L118.853 121.888C118.537 109.704 122.891 103.806 129.141 103.63C135.25 103.455 137.848 108.089 138.024 114.164L139.077 152.4C139.358 162.723 138.937 164.935 133.424 168.973V169.289L172.152 168.236V167.92C166.57 164.163 165.902 161.986 165.622 151.698L164.603 114.058C164.252 100.014 157.089 89.726 142.097 90.1473C130.405 90.4633 121.697 97.7314 118.607 110.793ZM227.782 77.8216C224.516 82.2105 217.634 85.3004 210.296 85.3004C199.201 85.3004 193.267 80.3145 191.546 72.0282C191.546 71.8851 191.482 71.2957 191.411 70.6511L191.41 70.6463L191.41 70.6452C191.325 69.8678 191.23 69.0119 191.23 68.7628C188.878 78.594 180.767 85.0195 169.04 85.0195C157.629 85.0195 148.113 78.6291 148.113 65.8134C148.113 48.7843 163.878 44.7464 180.767 41.1299L190.914 39.0934V21.1163C190.914 13.9535 188.421 7.84409 181.715 7.84409C175.781 7.84409 172.656 12.6895 172.656 19.0798C172.656 25.4701 175.149 28.5951 179.222 28.5951C179.854 28.5951 180.767 28.4546 181.575 28.1386C179.222 34.0725 173.464 37.3379 166.266 37.3379C158.296 37.3379 152.046 32.4925 152.046 24.3817C152.046 12.3735 164.546 5.00004 182.347 5.00004C204.222 5.00004 217.318 11.7064 217.318 31.088C217.318 35.6485 217.288 40.5792 217.256 45.8662C217.218 51.9765 217.178 58.5625 217.178 65.6027C217.178 73.3975 218.442 78.1025 224.516 78.1025C225.605 78.1025 226.693 77.7865 227.781 77.4705L227.782 77.4705V77.8216ZM186.245 42.9908C177.958 45.3433 173.92 51.1016 173.92 61.4244C173.92 69.5352 176.589 74.3806 181.399 74.3806C187.473 74.3806 190.774 67.9903 190.914 59.2475V41.9024L186.245 42.9908ZM272.863 36.8364L274.549 19.1401L242.351 16.0152L242.316 16.3312C247.653 20.6499 248.356 22.9673 247.372 33.3252L243.44 74.8974C242.492 84.7989 241.86 86.8705 236.102 90.1007L236.066 90.4167L273.285 93.963L273.32 93.647C268.439 89.3985 268.018 87.2216 268.966 77.3201L271.81 47.4752C272.934 35.783 277.955 30.6567 283.959 31.2185C289.822 31.7803 291.648 36.4853 291.086 42.3489L287.61 79.1108C286.662 89.0123 286.03 91.0488 280.412 94.3141L280.377 94.6301L317.596 98.1764L317.631 97.8604C312.575 93.5768 312.329 91.435 313.277 81.5335L316.718 45.3685C317.982 31.8857 312.189 21.1766 297.793 19.8073C286.557 18.7539 277.358 24.6878 272.863 36.8364ZM301.624 126.827C277.713 128.197 259.209 147.157 260.789 174.369C262.334 201.44 282.91 218.083 306.821 216.713C330.907 215.309 349.446 196.384 347.866 169.312C346.286 142.101 325.711 125.423 301.624 126.827ZM301.8 129.777C310.859 129.25 314.861 143.927 316.441 171.138C318.021 198.209 315.739 213.202 306.645 213.729C297.586 214.255 293.759 199.614 292.179 172.543C290.599 145.296 292.741 130.303 301.8 129.777ZM409.642 162.395C411.046 151.721 410.414 149.264 405.042 144.629L405.077 144.313L438.363 148.702L430.463 208.778C429.129 218.855 429.726 221.453 434.677 225.877L434.641 226.193L401.812 221.874L404.235 203.441C399.284 215.87 389.699 221.839 378.077 220.329C363.365 218.398 357.747 207.092 359.608 193.013L364.418 156.461C365.823 145.787 365.191 143.33 359.819 138.695L359.854 138.379L393.14 142.768L386.012 196.945C385.239 202.844 387.065 208.111 392.788 208.848C398.828 209.656 404.059 204.494 405.674 192.275L409.642 162.395ZM193.182 126.511L218.357 200.597L213.652 209.866C209.65 217.837 205.787 221.804 199.783 221.242C195.149 220.821 192.024 217.064 192.48 212.078C192.831 208.321 194.973 205.899 197.677 204.775C196.377 203.792 195.043 203.476 192.972 203.3C185.739 202.598 178.225 207.128 177.382 216.221C176.469 226.018 183.175 232.338 192.094 233.18C202.768 234.199 209.825 227.211 216.216 214.29L256.067 132.902C261.194 122.649 264.073 119.594 270.007 115.311L270.042 114.959L245.639 112.677L245.604 113.028C250.906 115.591 253.469 119.805 252.942 125.317C252.697 127.74 251.784 130.409 250.484 133.077L234.754 166.293L223.343 128.477C222.255 124.896 221.553 121.525 221.798 118.787C222.114 115.346 223.694 113.239 227.521 111.343L227.557 110.992L183.386 106.884L183.351 107.235C188.021 112.853 189.531 115.591 193.182 126.511Z" fill="#1886DF"/>
</svg>
