<svg width="356" height="234" viewBox="0 0 356 234" fill="none" xmlns="http://www.w3.org/2000/svg">
<path fill-rule="evenodd" clip-rule="evenodd" d="M66.6391 76.8205L104.107 73.0175L105.198 83.2691C106.124 92.3962 105.066 95.7032 99.3779 100.333L99.411 100.597L138.962 96.5961L138.929 96.3315C132.414 92.9254 130.728 89.883 129.802 80.7558L128.777 70.5373L132.381 70.1735C140.384 69.3799 141.806 70.9011 146.436 77.9779L146.7 77.9449L144.452 55.8214L144.187 55.8544C141.046 63.5596 139.987 65.3454 131.951 66.1721L128.347 66.5359L121.601 0L101.66 2.01724L66.606 76.3906L66.6391 76.8205ZM72.9884 72.1246L98.485 17.5599L103.677 69.0161L72.9884 72.1246ZM161.548 85.5179C160.424 114.95 176.264 136.18 200.306 137.106C224.215 138.032 241.643 118.124 242.8 88.6926C243.957 59.2607 228.084 38.0301 204.208 37.1041C180.166 36.1782 162.673 56.086 161.548 85.5179ZM188.665 86.5431C189.988 53.0767 193.593 39.2867 204.142 39.7166C214.559 40.1465 217.072 54.1349 215.782 87.6013C214.459 121.068 210.855 134.825 200.438 134.428C189.856 134.031 187.342 120.009 188.665 86.5431ZM302.359 45.7683L338.735 55.5568L338.636 55.9537L279.375 112.999L260.03 107.807L277.424 43.255L273.919 42.329C266.147 40.2456 264.494 41.5354 258.806 47.6202L258.541 47.554L264.329 26.0919L264.593 26.158C266.412 34.4254 267.173 36.3434 274.977 38.4599L278.482 39.3858L281.161 29.465C283.542 20.6023 283.046 17.1631 278.185 11.6736L278.251 11.409L316.645 21.7267L316.578 21.9913C309.634 24.3061 307.451 27.0178 305.07 35.8805L302.359 45.7683ZM287.874 99.6055L331.096 57.6733L301.3 49.6705L287.874 99.6055ZM70.475 94.678C68.5239 95.6701 65.3493 95.9347 60.8849 95.9347H0.962891V96.1992C6.65085 99.9361 7.77521 103.441 7.77521 112.602V176.558C7.77521 185.718 6.65085 189.224 0.962891 192.961V193.225H73.3852L77.122 164.587H76.8575C69.2184 179.601 61.7116 189.753 44.1848 189.753H33.338V144.712H40.5802C51.8569 144.712 56.0237 146.928 60.3227 159.726H60.5872V125.135H60.3227C56.0237 138.065 51.8238 141.108 40.5802 141.108H33.338V99.407H42.8289C59.7936 99.407 66.6059 107.873 74.245 121.927H74.5095L70.475 94.678ZM137.441 134.328C137.441 129.864 134.928 127.086 130.067 127.086C124.081 127.086 118.823 133.766 118.823 145.308V168.952C118.823 178.112 121.171 180.361 127.024 183.404V183.668H89.755V183.404C94.7485 179.931 95.1784 177.98 95.1784 168.82V130.294C95.1784 120.704 94.3516 118.62 89.0605 115.148V114.884H118.823V134.891C121.601 123.482 127.289 113.495 138.003 113.495C146.469 113.495 151.893 119.48 151.893 127.549C151.893 137.139 145.51 142.563 138.268 142.563C135.755 142.563 133.969 141.868 133.274 141.174C135.755 140.182 137.441 137.668 137.441 134.328ZM152.322 178.41C154.836 179.138 156.853 178.972 157.746 178.476C155.497 176.757 154.571 173.747 155.563 170.374C156.853 165.91 160.193 163.859 165.087 165.281C171.073 167.034 174.446 175.302 171.04 186.909L164.095 210.653C161.383 219.879 158.374 221.434 151.595 222.789L151.529 223.054L188.996 234L189.063 233.735C185.061 228.775 185.193 226.692 187.905 217.465L199.215 178.741C202.059 169.118 203.514 167.266 209.83 165.315L209.896 165.05L180.001 156.32L174.115 176.459C174.677 164.19 171.866 152.451 161.119 149.309C152.62 146.796 145.411 151.227 143.03 159.329C140.219 168.952 145.047 176.294 152.322 178.41ZM219.487 172.954C217.602 151.624 231.656 136.313 250.374 134.659C269.223 132.973 285.791 145.572 287.676 166.902C289.561 188.099 275.473 203.411 256.624 205.064C237.906 206.718 221.372 194.151 219.487 172.954ZM263.072 169.084C261.187 147.755 257.682 136.346 250.572 137.007C243.462 137.635 242.172 149.474 244.057 170.804C245.942 192.002 249.282 203.411 256.392 202.782C263.535 202.088 264.957 190.249 263.072 169.084ZM334.072 132.477C338.901 131.947 341.678 134.461 342.141 138.892C342.472 142.199 341.083 144.878 338.702 146.134C339.463 146.763 341.348 147.259 343.828 146.994C351.037 146.267 356.824 140.182 355.832 130.658C355.005 122.622 348.987 117.232 340.554 118.124C329.906 119.216 325.276 129.765 323.689 141.405L321.605 121.497L292.008 124.606L292.041 124.871C297.663 127.748 298.721 129.765 299.713 139.289L303.715 177.583C304.674 186.711 304.475 188.695 299.845 192.663L299.879 192.928L336.916 189.059L336.883 188.794C330.765 186.347 328.186 184.396 327.227 175.269L324.78 151.756C323.556 140.281 328.12 133.105 334.072 132.477Z" fill="#1886DF"/>
</svg>
