<svg width="430" height="230" viewBox="0 0 430 230" fill="none" xmlns="http://www.w3.org/2000/svg">
<path d="M312.03 115.451C308.888 119.974 302.116 123.387 294.721 123.685C283.56 124.119 277.384 119.324 275.325 111.062C275.325 110.737 274.892 108.245 274.892 107.785C272.914 117.78 265.005 124.552 253.194 125.013C241.709 125.473 231.876 119.378 231.361 106.484C230.684 89.3374 246.422 84.6241 263.244 80.3441L273.375 77.9062L272.671 59.8112C272.4 52.5786 269.637 46.5379 262.865 46.8088C256.878 47.0526 253.926 52.0368 254.196 58.4838C254.467 64.9309 257.095 67.9648 261.185 67.8293C261.808 67.8022 262.756 67.6126 263.515 67.2605C261.402 73.3282 255.713 76.8497 248.481 77.1477C240.463 77.4728 233.989 72.8407 233.663 64.66C233.176 52.5515 245.474 44.6688 263.406 43.9645C285.429 43.0977 298.892 49.3551 299.651 68.8316C300.03 78.7459 300.328 90.3668 300.842 103.586C301.14 111.442 302.603 116.128 308.725 115.884C309.836 115.83 310.919 115.478 312.003 115.126L312.03 115.451ZM268.851 82.0236C260.616 84.7053 256.743 90.6919 257.149 101.067C257.474 109.247 260.345 114.015 265.194 113.825C271.316 113.581 274.377 106.999 274.188 98.1953L273.51 80.7504L268.851 82.0236Z" fill="#1886DF"/>
<path d="M100.498 138.611C101.609 128.209 100.552 125.5 95.1886 121.41L95.2157 121.112L127.938 124.633L118.457 212.887C117.428 222.531 117.889 225.348 122.737 229.682L122.71 229.98L91.017 226.567L92.9132 209.068C88.9853 220.093 80.3171 226.946 68.6962 225.673C53.0121 223.993 42.2309 208.011 44.7501 184.471C47.3506 160.336 61.9783 146.358 78.7189 148.146C89.5813 149.311 95.8929 155.785 97.5182 166.187L100.498 138.611ZM94.1592 197.447L96.0554 179.948C97.5453 166.078 92.9944 157.329 86.6557 156.652C78.9627 155.812 74.168 166.295 71.9197 187.261C69.9964 205.059 72.8407 215.433 80.5338 216.273C86.737 216.95 92.859 209.664 94.1592 197.447Z" fill="#1886DF"/>
<path d="M207.605 167.433L162.016 169.221C162.801 189.483 172.093 200.914 185.989 200.345C194.82 199.993 202.486 195.28 206.603 183.821L207.605 184.119C204.707 202.079 192.734 213.835 174.097 214.567C153.022 215.406 134.927 200.724 133.871 174.097C132.896 148.444 150.368 131.243 171.47 130.403C194.982 129.482 206.766 145.871 207.605 167.433ZM181.492 165.022C180.761 146.71 179.081 132.868 171.415 133.166C164.4 133.437 161.474 146.981 161.907 165.781L181.492 165.022Z" fill="#1886DF"/>
<path d="M315.715 147.225C330.207 148.769 335.463 159.55 334 173.121L330.126 209.474C329.07 219.443 329.286 221.582 334.325 225.944L334.298 226.242L296.726 222.233L296.753 221.935C302.577 218.738 303.255 216.679 304.338 206.711L308.293 169.763C308.916 163.884 307.751 159.171 301.71 158.521C296.293 157.952 291.607 163.099 290.36 174.855L287.137 204.869C286.081 214.837 286.297 216.977 291.336 221.339L291.309 221.637L253.9 217.628L253.927 217.33C259.615 214.133 260.428 212.074 261.511 202.106L265.466 165.158C266.089 159.279 264.762 154.566 258.884 153.916C253.304 153.32 248.644 158.467 247.371 170.223L244.175 200.237C243.118 210.205 243.498 212.372 248.374 216.707L248.346 217.005L210.938 212.995L210.965 212.698C216.789 209.501 217.466 207.442 218.549 197.474L222.965 155.758C224.075 145.356 223.425 142.999 218.089 138.611L218.116 138.313L250.405 141.753L248.509 159.55C253.006 147.36 261.728 141.428 272.753 142.62C285.268 143.947 291.254 152.236 291.363 163.993C295.832 151.938 304.717 146.033 315.715 147.225Z" fill="#1886DF"/>
<path d="M346.297 185.447C346.297 159.279 365.096 142.16 388.067 142.16C411.228 142.16 430 159.279 430 185.447C430 211.452 411.2 228.571 388.067 228.571C365.096 228.571 346.297 211.452 346.297 185.447ZM399.823 185.447C399.823 159.279 396.817 145.004 388.067 145.004C379.345 145.004 376.5 159.252 376.5 185.447C376.5 211.452 379.345 225.727 388.067 225.727C396.789 225.727 399.823 211.452 399.823 185.447Z" fill="#1886DF"/>
<path d="M34.7543 136.038C18.2034 136.038 0 132.083 0 119.812C0 113.283 6.36576 107.974 17.7429 107.378C9.39965 105.401 2.73592 99.6308 2.73592 89.7707C2.73592 80.2085 10.3207 73.2468 18.8264 70.5109C9.88724 66.258 5.01134 58.5378 5.01134 49.4091C5.01134 35.1606 16.551 24.6774 37.0297 24.6774C45.075 24.6774 51.7387 26.3569 56.75 29.3908C59.0255 21.8061 63.7388 15.1423 71.161 15.1423C78.9083 15.1423 82.8361 19.9911 82.8361 26.0589C82.8361 33.1832 76.9308 36.515 71.6215 37.5986L71.459 37.3006C72.38 36.0816 72.678 34.7272 72.678 33.0477C72.678 29.0928 70.4025 25.9235 65.8517 25.9235C62.6553 25.9235 60.2444 27.9009 58.565 30.4743C65.3912 34.7272 69.1836 41.3909 69.1836 49.4361C69.1836 63.6846 57.644 74.1678 37.0297 74.1678C30.7994 74.1678 25.6526 73.2468 21.1018 71.5944C17.6074 72.9488 15.034 75.0888 15.034 78.2581C15.034 81.888 17.7699 83.8654 22.3208 83.8654H50.2488C67.6937 83.8654 78.1769 91.7481 78.1769 106.322C78.1227 126.638 57.346 136.038 34.7543 136.038ZM60.6778 118.43C60.6778 111.143 56.127 108.109 46.8628 108.109H26.0861C18.6639 108.109 13.49 111.441 13.49 119.026C13.49 128.724 23.0522 133.275 35.0252 133.275C49.0028 133.302 60.6778 128.155 60.6778 118.43ZM29.5804 49.4091C29.5804 63.82 31.6933 71.5673 37.0027 71.5673C42.4745 71.5673 44.5874 63.82 44.5874 49.4091C44.5874 34.9981 42.4745 27.2508 37.0027 27.2508C31.7204 27.2508 29.5804 34.9981 29.5804 49.4091Z" fill="#1886DF"/>
<path d="M158.683 58.565H112.985C112.985 78.8812 121.842 90.6918 135.766 90.6918C144.624 90.6918 152.479 86.2764 157.057 74.9534L158.032 75.2785C154.43 93.1297 141.969 104.453 123.305 104.453C102.176 104.453 84.623 89.0394 84.623 62.3303C84.623 36.5964 102.799 20.0454 123.955 20.0454C147.549 20.0454 158.683 36.9214 158.683 58.565ZM132.651 55.1248C132.651 36.7589 131.513 22.8355 123.793 22.8355C116.75 22.8355 113.31 36.2713 112.985 55.1248H132.651Z" fill="#1886DF"/>
<path d="M208.797 33.7791L229.303 37.7069L230.955 33.6708L209.61 29.5804L215.217 0.32506L213.537 0C204.571 15.9008 189.185 24.2711 173.203 24.8671L172.824 26.8716L180.381 28.3073L169.925 81.0483C166.241 100.227 174.666 110.9 189.293 113.69C207.117 117.103 217.005 104.696 222.206 88.4434L220.418 87.7662C216.598 98.5473 210.964 103.396 204.571 102.177C198.693 101.039 196.824 96.1635 198.476 87.5765L208.797 33.7791Z" fill="#1886DF"/>
</svg>
