<svg width="125" height="48" viewBox="0 0 125 48" fill="none" xmlns="http://www.w3.org/2000/svg">
<path d="M68.5527 23.9645C66.8807 26.3276 64.0718 27.8436 60.7723 27.8436C55.3328 27.8436 51.1416 23.4295 51.1416 18.0345C51.1416 12.5949 55.3328 8.20312 60.7723 8.20312C64.0272 8.20312 66.7916 9.67449 68.4636 11.9707L65.6323 13.9994C64.5176 12.5503 62.801 11.5471 60.7723 11.5471C57.2946 11.5471 54.6863 14.4453 54.6863 18.0122C54.6863 21.5569 57.2946 24.455 60.7723 24.455C62.8233 24.455 64.6291 23.4295 65.7438 21.869L68.5527 23.9645Z" fill="#1886DF"/>
<path d="M72.7668 7.55713C73.926 7.55713 74.9069 8.44886 74.9069 9.58583C74.9069 10.7451 73.926 11.6368 72.7668 11.6368C71.5629 11.6368 70.582 10.7451 70.582 9.58583C70.582 8.42657 71.5629 7.55713 72.7668 7.55713ZM74.4388 27.5766H71.0725V14.6018H74.4388V27.5766Z" fill="#1886DF"/>
<path d="M88.1037 25.9046C87.2788 27.2422 85.3616 27.8218 84.0686 27.8218C80.6577 27.8218 77.4697 25.2135 77.4697 21.0669C77.4697 16.898 80.6577 14.312 84.0686 14.312C85.2278 14.312 87.1451 14.7579 88.1037 16.2069V14.6018H91.4923V27.5766H88.1037V25.9046ZM84.5367 24.567C86.3648 24.567 88.0814 23.2962 88.0814 21.0669C88.0814 18.8153 86.2979 17.5668 84.5367 17.5668C82.6864 17.5668 80.9475 18.949 80.9475 21.0669C80.9475 23.1625 82.6864 24.567 84.5367 24.567Z" fill="#1886DF"/>
<path d="M95.3271 7.55713H98.7157V27.5766H95.3271V7.55713Z" fill="#1886DF"/>
<path d="M110.666 10.7897H109.239C107.656 10.7897 107.121 11.9935 107.121 13.5763V14.6018H109.908V17.3216H107.166V27.5766H103.755V17.3216H101.28V14.6018H103.755V13.5763C103.755 9.80876 105.65 7.55713 109.284 7.55713H110.71V10.7897H110.666Z" fill="#1886DF"/>
<path d="M111.49 21.0448C111.49 16.9651 114.544 14.3345 118.245 14.3345C121.901 14.3345 125 16.9651 125 21.0448C125 25.1245 121.924 27.822 118.245 27.822C114.544 27.822 111.49 25.1245 111.49 21.0448ZM121.611 21.0448C121.611 18.9938 120.073 17.6562 118.223 17.6562C116.372 17.6562 114.834 18.9938 114.834 21.0448C114.834 23.1627 116.372 24.5225 118.223 24.5225C120.095 24.5225 121.611 23.1627 121.611 21.0448Z" fill="#1886DF"/>
<path fill-rule="evenodd" clip-rule="evenodd" d="M20.1086 0H0V22.7838C0 28.6693 2.20705 34.3764 6.26444 38.6344C6.37591 38.7459 6.48738 38.8797 6.62114 38.9911C10.1435 42.5581 14.7359 45.3224 19.8857 47.0167L19.9972 47.0613L20.1086 47.0167L20.2201 47.0613L20.3316 47.0167C25.5036 45.3447 30.0738 42.5581 33.5961 38.9911C33.7076 38.8797 33.8414 38.7459 33.9528 38.6344C38.0102 34.3764 40.2173 28.6693 40.2173 22.7838V0H20.1086Z" fill="#1886DF"/>
<path d="M37.5655 18.6149C37.5209 18.5258 37.3871 18.2805 37.0081 18.4366L36.6068 18.5926C36.4508 18.6372 36.317 18.6818 36.2056 18.7264C36.0941 18.771 35.9826 18.8156 35.8712 18.8602L34.5558 19.2614C33.8647 19.5067 33.1514 19.7296 32.3934 19.908C32.1482 19.9748 31.8806 20.0417 31.6354 20.1309C31.3679 20.1978 31.1227 20.2647 30.8551 20.3538C30.387 20.4876 29.9188 20.5991 29.473 20.7105C29.0494 20.822 28.6258 20.9112 28.2022 21.0003L28.8042 19.3729C28.8487 19.3283 28.8933 19.2837 28.9379 19.2392C29.1386 19.0831 29.3392 18.927 29.5175 18.771C29.6959 18.5926 29.8742 18.4143 30.0303 18.2137C30.2086 18.013 30.387 17.8347 30.5653 17.634C30.7437 17.4334 30.922 17.2327 31.0781 17.0544C31.1672 16.9429 31.2564 16.8538 31.3456 16.7423C31.4571 16.6308 31.5462 16.4971 31.6354 16.3856L32.4826 15.2041C32.9061 14.6021 33.2851 13.9779 33.6418 13.3314C33.731 13.1754 33.8202 13.0193 33.887 12.8632C33.9539 12.7072 34.0208 12.5734 34.0877 12.4174C34.1991 12.1722 34.2883 11.9046 34.3998 11.6594C34.489 11.3919 34.5781 11.1244 34.645 10.8568C34.6896 10.7454 34.7119 10.6339 34.7342 10.5224C34.7565 10.3887 34.7788 10.2549 34.7565 10.0989V9.96511C34.7788 9.87593 34.7342 9.76447 34.6896 9.67529C34.645 9.49695 34.5336 9.36318 34.3998 9.27401C34.2437 9.18484 34.0654 9.16254 33.887 9.20713C33.7087 9.25172 33.5303 9.3186 33.3966 9.43006C33.2851 9.51924 33.1514 9.63071 33.0399 9.71988C32.9507 9.78676 32.8838 9.85364 32.817 9.92052C32.7724 9.9874 32.7055 10.0543 32.6609 10.1212C32.5494 10.2549 32.438 10.3887 32.3488 10.5224C32.2596 10.6562 32.1482 10.79 32.059 10.946C31.7469 11.3696 31.4571 11.86 31.1673 12.3728C31.0335 12.5957 30.8997 12.8187 30.766 13.0416C30.6545 13.2645 30.543 13.4875 30.4316 13.6881C30.2755 14.0002 30.1195 14.29 29.9634 14.5798C29.8296 14.8697 29.6736 15.1595 29.5398 15.4716C29.4952 15.5385 29.473 15.583 29.4507 15.6499C29.4284 15.6945 29.4284 15.7168 29.4061 15.7614C29.3169 15.962 29.2277 16.1627 29.1608 16.341C29.0717 16.5194 29.0048 16.72 28.9156 16.9206C28.8264 17.1213 28.7373 17.2996 28.6704 17.5003C28.6258 17.5894 28.5812 17.7009 28.5366 17.8124L28.3137 18.3474L27.5111 18.6149C27.422 18.6372 27.3551 18.6818 27.2659 18.7041C27.1544 18.7264 27.0653 18.771 26.9538 18.7933L26.5525 18.927C26.1958 19.0608 25.8391 19.1723 25.5047 19.2837C25.1703 19.3952 24.8136 19.5067 24.4792 19.6181C24.1894 19.7073 23.8773 19.7965 23.5429 19.8634C23.2308 19.9525 22.9187 20.0194 22.6066 20.1086C22.3837 20.1532 22.183 20.2201 21.9601 20.2647C21.7372 20.3092 21.5365 20.3538 21.3359 20.3761C20.9569 20.4207 20.6225 20.443 20.3327 20.4207C20.132 20.4207 19.8645 20.3761 19.753 20.2201C19.6639 20.0863 19.6416 19.9302 19.6639 19.7073C19.7085 19.5067 19.753 19.306 19.8199 19.1054C19.8868 18.9048 19.976 18.7264 20.0874 18.5481C20.0874 18.5481 20.0874 18.5258 20.1097 18.5258L20.1989 18.3251C20.2658 18.1691 20.2658 18.0576 20.2212 17.9461C20.1989 17.8793 20.132 17.8124 19.9983 17.7678C19.9314 17.7455 19.8422 17.7232 19.7753 17.7232C19.6639 17.7232 19.5747 17.7678 19.5078 17.857L19.218 18.1468C19.1288 18.0799 19.0174 18.013 18.8836 17.9907H18.8613C18.7275 17.9684 18.6161 17.9684 18.5046 17.9461C18.3708 17.9461 18.2371 17.9461 18.1256 17.9907C17.9919 18.0353 17.8804 18.0576 17.7912 18.0799C17.6798 18.1022 17.5683 18.1468 17.4791 18.1914C17.3231 18.2582 17.1447 18.3474 16.9887 18.4366C16.253 18.8156 15.4504 19.2392 14.6256 19.7296C13.8007 20.2201 12.9313 20.6882 12.0618 21.1118C11.1924 21.5354 10.3229 21.9144 9.47579 22.2042C8.62864 22.494 7.82608 22.65 7.0904 22.65C6.59994 22.65 6.22095 22.5832 5.93114 22.4271C5.66362 22.2711 5.44069 22.0927 5.30692 21.8698C5.15087 21.6468 5.0617 21.3793 4.99482 21.0895C4.92794 20.7774 4.88335 20.4876 4.83876 20.1755C4.83876 20.1532 4.83876 20.1532 4.83876 20.1309C4.83876 20.1086 4.81647 20.0863 4.83876 20.0417C4.83876 19.9971 4.86106 19.9525 4.86106 19.908C4.88335 19.8411 4.88335 19.7519 4.88335 19.6404C4.88335 19.6181 4.88335 19.5958 4.86106 19.5736C4.86106 19.5736 4.86106 19.5736 4.86106 19.5513C4.86106 19.529 4.86106 19.5067 4.86106 19.5067C4.86106 19.4175 4.86106 19.3283 4.88335 19.2392C4.88335 19.15 4.90564 19.0608 4.92794 18.9493C4.95023 18.7933 4.99482 18.5704 5.08399 18.2805L5.24004 17.7232L5.41839 17.1659C5.46298 17.0098 5.52986 16.8761 5.59674 16.72C5.7305 16.4079 5.86426 16.0958 6.02031 15.7837C6.17637 15.4716 6.33242 15.1595 6.51077 14.8696C6.77829 14.4015 7.04581 14.0002 7.31333 13.6212C7.4248 13.4652 7.53626 13.3091 7.64773 13.1308C7.7592 12.9747 7.89296 12.8187 8.00443 12.6849C8.02672 12.6626 8.02672 12.6403 8.04901 12.618C8.11589 12.5288 8.18277 12.462 8.24965 12.3505C8.31653 12.2613 8.4057 12.1499 8.49488 12.083C8.60635 11.9715 8.69552 11.8823 8.74011 11.8155C8.87387 11.6817 8.98533 11.5479 9.0968 11.4142C9.20827 11.2804 9.34203 11.1689 9.47579 11.0129C9.60955 10.8791 9.74331 10.7454 9.85478 10.6562C9.96624 10.567 10.0554 10.4779 10.1669 10.3887C10.3006 10.2772 10.4121 10.188 10.5459 10.0766C10.6796 9.96511 10.8357 9.83135 10.9917 9.69759C11.2593 9.49695 11.5491 9.3186 11.9058 9.11796C12.2402 8.89502 12.5746 8.73897 12.8867 8.6275C13.065 8.56062 13.2434 8.49374 13.444 8.42686C13.6224 8.35998 13.823 8.33769 14.0013 8.33769C14.0682 8.33769 14.1574 8.35998 14.2466 8.38228C14.4249 8.42686 14.5141 8.53833 14.5587 8.71668C14.581 8.85044 14.581 8.9842 14.581 9.09566C14.581 9.20713 14.5364 9.34089 14.4918 9.49694C14.4472 9.63071 14.4249 9.76447 14.358 9.89823C14.3135 10.0543 14.2689 10.1657 14.2243 10.2772C14.1574 10.4556 14.0682 10.6116 14.0013 10.7677C13.9345 10.9237 13.8453 11.0798 13.7561 11.2135C13.6892 11.325 13.6224 11.4365 13.5555 11.5479L13.3325 11.8823C13.1765 12.1499 12.9981 12.4174 12.7752 12.6626L12.3962 13.1308C12.3516 13.1754 12.3293 13.2199 12.307 13.2645C12.307 13.2645 12.307 13.2645 12.2848 13.2868C12.2179 13.376 12.151 13.4652 12.0841 13.532C12.0172 13.5989 11.9504 13.6881 11.8612 13.7773L11.772 13.8664L11.7497 13.8887C11.616 14.0894 11.4599 14.2677 11.2816 14.4015C11.1478 14.513 11.0809 14.6467 11.0809 14.8251C11.0809 14.8474 11.0809 14.8697 11.1032 14.8919C11.1478 15.0257 11.2147 15.0926 11.2816 15.1372C11.3707 15.2041 11.5045 15.2486 11.6382 15.2486C11.6605 15.2486 11.6605 15.2486 11.6828 15.2486C11.7943 15.2263 11.8835 15.1595 11.9726 15.0703C12.0172 15.0257 12.0618 14.9811 12.0841 14.9365C12.1287 14.8919 12.151 14.8474 12.1956 14.7805C12.2402 14.7359 12.2625 14.7136 12.307 14.669C12.3516 14.6244 12.3739 14.5798 12.4185 14.513L12.6414 14.29L12.6637 14.2677C12.7529 14.134 12.7975 14.0894 12.7975 14.0894C12.7975 14.0894 12.7975 14.0671 12.8198 14.0671C12.8644 14.0002 12.909 13.9556 12.9759 13.8887C13.0427 13.8219 13.0873 13.755 13.1319 13.6658C13.2657 13.4875 13.3771 13.3537 13.4663 13.2199C13.5109 13.1754 13.5332 13.1308 13.5778 13.0639C13.6001 13.0193 13.6447 12.9747 13.6669 12.9524L13.6892 12.9301C13.8007 12.7964 13.9122 12.6403 14.0236 12.4843C14.1351 12.3282 14.2243 12.1722 14.3135 12.0384C14.5141 11.7263 14.6701 11.4365 14.8039 11.1689C14.9377 10.9014 15.0268 10.6339 15.116 10.3887C15.1829 10.188 15.2498 9.9874 15.3167 9.78676C15.3835 9.56383 15.4281 9.34089 15.4281 9.14025C15.4504 9.00649 15.4504 8.87273 15.4504 8.76126C15.4504 8.6498 15.4281 8.56062 15.4058 8.47145C15.3389 8.11476 15.1829 7.84724 14.9154 7.66889C14.737 7.55742 14.5364 7.49054 14.3135 7.44595C14.2912 7.42366 14.2466 7.40137 14.202 7.40137L13.5555 7.42366C13.5109 7.42366 13.4663 7.44595 13.444 7.46825L13.1542 7.53513C13.1096 7.53513 13.0873 7.55742 13.065 7.55742C13.065 7.55742 13.065 7.55742 13.0427 7.55742C12.8867 7.60201 12.7083 7.66889 12.53 7.75806C12.3516 7.82494 12.1733 7.91412 11.9726 8.00329C11.8166 8.09246 11.6382 8.18164 11.4822 8.27081C11.3038 8.35998 11.1032 8.49374 10.9249 8.6275C10.7465 8.76126 10.5682 8.87273 10.4121 8.9842C10.2561 9.09566 10.1 9.22942 9.94395 9.38548C9.87707 9.43006 9.81019 9.49695 9.72101 9.56383C9.65413 9.63071 9.56496 9.69759 9.47579 9.78676C9.23056 9.96511 8.98533 10.188 8.78469 10.411L8.60635 10.5893C8.4057 10.8123 8.20507 11.0575 8.00443 11.2581C7.80378 11.4811 7.58085 11.7263 7.4025 11.9715L7.26874 12.1276C7.22416 12.1722 7.17957 12.2167 7.15728 12.239C7.13498 12.2613 7.11269 12.3059 7.0904 12.3282C7.02352 12.4174 6.95664 12.4843 6.91205 12.5511C6.86746 12.618 6.80058 12.7072 6.75599 12.7964C6.71141 12.841 6.66682 12.9078 6.59994 13.0193C6.51077 13.1531 6.42159 13.2868 6.33242 13.4206C6.24325 13.5543 6.13178 13.7104 5.99802 13.911C5.95343 14.0002 5.88655 14.0894 5.84197 14.1786C5.79738 14.2677 5.75279 14.3346 5.68591 14.4238C5.68591 14.4238 5.66362 14.4461 5.66362 14.4684C5.66362 14.4907 5.64133 14.5353 5.55215 14.669C5.46298 14.8251 5.37381 15.0034 5.28463 15.1595L5.0617 15.6053C4.97252 15.7614 4.88335 15.9397 4.83876 16.0735L4.68271 16.4971C4.66042 16.5194 4.63812 16.5862 4.59354 16.72L4.45978 17.2327V17.255C4.41519 17.4334 4.3929 17.478 4.3706 17.5003C4.3706 17.5226 4.34831 17.5449 4.34831 17.5449C4.32602 17.6786 4.28143 17.7901 4.25914 17.9461C4.23684 18.0799 4.19226 18.2137 4.16996 18.3474C4.12538 18.5035 4.10308 18.6372 4.08079 18.771L4.01391 19.15V19.1723V19.1946C3.96932 19.8188 3.96932 20.4207 4.01391 20.9335C4.08079 21.4685 4.23684 21.9144 4.45978 22.2933C4.705 22.6723 5.0394 22.9844 5.46298 23.1851C5.88655 23.3857 6.3993 23.4972 7.04581 23.4972C7.69232 23.4972 8.4057 23.3857 9.16368 23.1628C9.89936 22.9399 10.6573 22.6723 11.393 22.3602C12.1287 22.0481 12.8644 21.7137 13.5555 21.3347C14.202 21.0003 14.8039 20.6659 15.3167 20.3538C15.2275 20.7774 15.4058 21.0003 15.5842 21.1118C15.8071 21.2901 16.0746 21.2901 16.3199 21.201C16.6097 21.1118 16.8995 20.978 17.167 20.822C17.4122 20.6659 17.6575 20.5099 17.925 20.3538C17.925 20.3538 17.925 20.3538 17.9473 20.3315L18.5269 19.8411C18.6384 19.7519 18.7275 19.6627 18.839 19.5736C18.8167 19.7965 18.839 20.0194 18.9059 20.2201C19.0397 20.7105 19.3518 21.0226 19.8645 21.1118C19.9983 21.1564 20.1097 21.1564 20.2658 21.1564C20.355 21.1564 20.4441 21.1564 20.5333 21.1564C20.5556 21.1564 20.5779 21.1564 20.6002 21.1564C20.8677 21.1118 21.0906 21.1341 21.2913 21.1118C21.425 21.0895 21.5811 21.0672 21.7149 21.0672C21.8486 21.0449 22.0047 21.0226 22.1384 20.978C22.3391 20.9335 22.5397 20.8889 22.7404 20.8443C22.9187 20.7997 23.1193 20.7551 23.32 20.7105C23.6544 20.6213 23.9888 20.5322 24.3232 20.4207C24.6353 20.3315 24.9697 20.2201 25.3041 20.1086C25.5939 20.0194 25.8614 19.9302 26.0844 19.8634C26.3296 19.7965 26.5525 19.7296 26.7755 19.6404C26.9984 19.5736 27.2213 19.4844 27.4443 19.4175C27.6003 19.3729 27.7564 19.306 27.9347 19.2392C27.9124 19.2837 27.8901 19.3506 27.8455 19.4398C27.7787 19.5958 27.7118 19.7965 27.6226 19.9971L27.199 21.1118H27.1767C26.9984 21.1564 26.82 21.1787 26.664 21.2233C26.4856 21.2679 26.3296 21.2901 26.1512 21.3347C25.9283 21.3793 25.7277 21.4016 25.527 21.4462C25.3264 21.4908 25.1257 21.4908 24.9251 21.4908C24.8582 21.4908 24.769 21.5131 24.6799 21.5577C24.5461 21.6023 24.4792 21.6691 24.4346 21.736C24.3901 21.8252 24.3678 21.9144 24.4124 22.0481C24.4569 22.2488 24.7022 22.2933 24.7691 22.3156H24.7913C24.9474 22.3379 25.3487 22.2711 25.3487 22.2711L26.2627 22.1596C26.3519 22.1373 26.4633 22.115 26.5748 22.0927C26.6863 22.0704 26.7755 22.0481 26.8869 22.0258H26.9092C26.8869 22.0927 26.8646 22.1596 26.8423 22.2488C26.7977 22.4048 26.7309 22.5609 26.664 22.7169C26.3742 23.5195 26.1067 24.322 25.8614 25.1023C25.6162 25.8826 25.3933 26.7074 25.1926 27.5546C25.1703 27.7106 25.1257 27.8667 25.0589 28.0005C25.0143 28.1565 24.9474 28.3349 24.9251 28.5355C24.9028 28.6693 24.8805 28.803 24.8582 28.9145C24.8136 29.0482 24.7913 29.182 24.7468 29.3158V29.3381C24.7245 29.4718 24.7022 29.6056 24.6799 29.717C24.6576 29.8508 24.613 29.9623 24.5907 30.1183V30.1406C24.5684 30.2521 24.5461 30.3858 24.5238 30.4973C24.5015 30.6311 24.4569 30.7425 24.4346 30.8986C24.4346 30.9209 24.4346 30.9209 24.4346 30.9432C24.4346 31.1438 24.4124 31.233 24.3901 31.2776V31.2999C24.3678 31.4113 24.3678 31.4782 24.3678 31.5451V31.768C24.3678 31.9018 24.4124 32.0133 24.5015 32.1247C24.5684 32.2139 24.6576 32.2585 24.7691 32.2585C24.8582 32.2585 24.9251 32.2362 24.9697 32.2139C25.148 32.147 25.2149 32.0133 25.1926 31.8349C25.1926 31.8126 25.1926 31.7903 25.1926 31.7903C25.2149 31.7457 25.2149 31.6566 25.1257 31.5451C25.1257 31.5228 25.1035 31.4559 25.148 31.2776L25.1703 31.0992L25.3041 30.4304C25.3487 30.2744 25.371 30.1406 25.3933 29.9846C25.4156 29.8508 25.4601 29.6948 25.4824 29.561C25.527 29.3604 25.5493 29.1374 25.5939 28.9368C25.6385 28.7138 25.6831 28.5132 25.75 28.3126L26.0621 27.0864L26.4633 25.7042C26.6194 25.1692 26.7977 24.6119 26.9984 24.0768C27.199 23.5195 27.3774 22.9844 27.578 22.4717L27.8232 21.8475C27.8232 21.8252 27.8455 21.8252 27.8901 21.8029C28.1576 21.7583 28.4029 21.7137 28.6258 21.6691C28.8487 21.6245 29.0717 21.5577 29.3169 21.4908C30.0303 21.3347 30.7437 21.1564 31.4348 20.978H31.4571C31.6577 20.8889 31.8806 20.822 32.1036 20.7774L32.817 20.6213C33.1068 20.5322 33.3743 20.443 33.6641 20.3538C33.9316 20.2647 34.2214 20.1755 34.5113 20.0863C34.7565 19.9971 35.024 19.908 35.2692 19.8411C35.5368 19.7519 35.8043 19.6627 36.0495 19.5958L37.2088 19.1946C37.2533 19.1946 37.2756 19.1723 37.2979 19.1723C37.3202 19.1723 37.3202 19.1723 37.3425 19.15C37.6769 18.9716 37.61 18.7264 37.5655 18.6149ZM29.9411 16.6754C30.1418 16.185 30.3424 15.6945 30.5876 15.2263C30.8328 14.7359 31.0781 14.2454 31.3233 13.7773C31.4125 13.5989 31.5017 13.4429 31.6131 13.2868C31.7246 13.1308 31.8361 12.9524 31.9252 12.7741C32.0367 12.5734 32.1482 12.3951 32.2596 12.2167C32.3711 12.0384 32.5049 11.8378 32.6163 11.6594L33.2405 10.8123L33.7087 10.2772C33.731 10.2549 33.7756 10.2326 33.8202 10.188L33.9539 10.0989C33.9316 10.2326 33.887 10.3664 33.8647 10.5224C33.8425 10.6562 33.7979 10.8123 33.7533 10.9237C33.6641 11.1467 33.5749 11.3696 33.5081 11.5925C33.4412 11.7932 33.352 12.0161 33.2628 12.2167C32.9507 12.8632 32.594 13.5098 32.1927 14.1117C32.0367 14.4015 31.8583 14.669 31.68 14.9142C31.5017 15.1595 31.301 15.427 31.1004 15.6722C30.9666 15.8506 30.8106 16.0512 30.6545 16.2295C30.4984 16.4302 30.3424 16.6085 30.2086 16.7646C30.008 16.9652 29.8074 17.1659 29.629 17.3665C29.6067 17.3888 29.6067 17.3888 29.5844 17.4111L29.9411 16.6754ZM18.1702 19.0608C18.0587 19.1723 17.925 19.2837 17.7912 19.3952C17.5683 19.5736 17.3008 19.7742 16.9887 19.9748C16.788 20.1086 16.5428 20.2424 16.253 20.3538C16.2753 20.2869 16.3199 20.2201 16.3867 20.1532C16.3867 20.1532 16.3867 20.1532 16.409 20.1309C16.7211 19.685 17.1001 19.3283 17.5237 19.0831C17.7689 18.9493 18.0142 18.8602 18.2594 18.8156H18.2817C18.3263 18.7933 18.3708 18.7933 18.4154 18.7933C18.46 18.7933 18.4823 18.7933 18.5269 18.8156C18.3931 18.8825 18.2817 18.9716 18.1702 19.0608Z" fill="white"/>
</svg>
