<svg width="14" height="18" viewBox="0 0 14 18" fill="none" xmlns="http://www.w3.org/2000/svg">
<path d="M7 0C3.14154 0 0 3.14157 0 7.00003C0 9.81062 1.69429 12.4451 3.32972 14.4077C4.96516 16.3702 6.60227 17.679 6.60227 17.679L7 17.9972L7.39773 17.679C7.39773 17.679 9.03484 16.3702 10.6703 14.4077C12.3057 12.4451 14 9.81062 14 7.00003C14 3.14157 10.8585 0 7 0ZM7 3.81824C8.74973 3.81824 10.1818 5.25028 10.1818 7.00003C10.1818 8.74976 8.74973 10.1818 7 10.1818C5.25027 10.1818 3.81818 8.74976 3.81818 7.00003C3.81818 5.25028 5.25027 3.81824 7 3.81824Z" fill="#2B1F30"/>
</svg>
